HIERARCHY
ROOT Hips
{
	OFFSET	0.00	0.00	0.00
	CHANNELS 6 Xposition Yposition Zposition Zrotation Xrotation Yrotation
	JOINT LeftUpLeg
	{
		OFFSET	 0.126116	-0.065224	 0.014019
		CHANNELS 3 Zrotation Xrotation Yrotation
		JOINT LeftLeg
		{
			OFFSET	 0.000000	 0.569914	 0.000000
			CHANNELS 3 Zrotation Xrotation Yrotation
			JOINT LeftFoot
			{
				OFFSET	 0.000000	 0.544423	 0.000000
				CHANNELS 3 Zrotation Xrotation Yrotation
				JOINT LeftToeBase
				{
					OFFSET	 0.000000	 0.207117	 0.000000
					CHANNELS 3 Zrotation Xrotation Yrotation
					End Site
					{
						OFFSET	 0.000000	 0.207117	 0.000000
					}
				}
			}
		}
	}
	JOINT RightUpLeg
	{
		OFFSET	-0.124023	-0.065224	 0.008373
		CHANNELS 3 Zrotation Xrotation Yrotation
		JOINT RightLeg
		{
			OFFSET	 0.000000	 0.570047	 0.000000
			CHANNELS 3 Zrotation Xrotation Yrotation
			JOINT RightFoot
			{
				OFFSET	 0.000000	 0.544354	 0.000000
				CHANNELS 3 Zrotation Xrotation Yrotation
				JOINT RightToeBase
				{
					OFFSET	 0.000000	 0.207540	 0.000000
					CHANNELS 3 Zrotation Xrotation Yrotation
					End Site
					{
						OFFSET	 0.000000	 0.207540	 0.000000
					}
				}
			}
		}
	}
	JOINT Spine
	{
		OFFSET	 0.000184	 0.117403	 0.007763
		CHANNELS 3 Zrotation Xrotation Yrotation
		JOINT Spine1
		{
			OFFSET	 0.000000	 0.137269	 0.000000
			CHANNELS 3 Zrotation Xrotation Yrotation
			JOINT Spine2
			{
				OFFSET	 0.000000	 0.156879	 0.000000
				CHANNELS 3 Zrotation Xrotation Yrotation
				JOINT LeftShoulder
				{
					OFFSET	 0.080501	 0.160143	 0.002496
					CHANNELS 3 Zrotation Xrotation Yrotation
					JOINT LeftArm
					{
						OFFSET	 0.000000	 0.164363	 0.000000
						CHANNELS 3 Zrotation Xrotation Yrotation
						JOINT LeftForeArm
						{
							OFFSET	 0.000000	 0.364576	 0.000000
							CHANNELS 3 Zrotation Xrotation Yrotation
							JOINT LeftHand
							{
								OFFSET	 0.000000	 0.360812	 0.000000
								CHANNELS 3 Zrotation Xrotation Yrotation
								JOINT LeftHandIndex1
								{
									OFFSET	 0.000000	 0.086006	 0.000000
									CHANNELS 3 Zrotation Xrotation Yrotation
									JOINT LeftHandIndex2
									{
										OFFSET	 0.000000	 0.047237	 0.000000
										CHANNELS 3 Zrotation Xrotation Yrotation
										JOINT LeftHandIndex3
										{
											OFFSET	-0.004284	 0.038165	 0.000551
											CHANNELS 3 Zrotation Xrotation Yrotation
											End Site
											{
												OFFSET	-0.004284	 0.038165	 0.000551
											}
										}
									}
								}
							}
						}
					}
				}
				JOINT Neck
				{
					OFFSET	 0.000000	 0.176489	 0.000000
					CHANNELS 3 Zrotation Xrotation Yrotation
					JOINT Head
					{
						OFFSET	 0.000000	 0.077941	 0.001747
						CHANNELS 3 Zrotation Xrotation Yrotation
						End Site
						{
							OFFSET	 0.000000	 0.077941	 0.001747
						}
					}
				}
				JOINT RightShoulder
				{
					OFFSET	-0.080363	 0.159706	-0.000306
					CHANNELS 3 Zrotation Xrotation Yrotation
					JOINT RightArm
					{
						OFFSET	 0.000000	 0.164196	 0.000000
						CHANNELS 3 Zrotation Xrotation Yrotation
						JOINT RightForeArm
						{
							OFFSET	 0.000000	 0.365611	 0.000000
							CHANNELS 3 Zrotation Xrotation Yrotation
							JOINT RightHand
							{
								OFFSET	 0.000000	 0.360648	 0.000000
								CHANNELS 3 Zrotation Xrotation Yrotation
								JOINT RightHandIndex1
								{
									OFFSET	 0.000000	 0.069977	 0.000000
									CHANNELS 3 Zrotation Xrotation Yrotation
									JOINT RightHandIndex2
									{
										OFFSET	 0.000000	 0.052305	 0.000000
										CHANNELS 3 Zrotation Xrotation Yrotation
										JOINT RightHandIndex3
										{
											OFFSET	 0.009002	 0.042196	 0.000782
											CHANNELS 3 Zrotation Xrotation Yrotation
											End Site
											{
												OFFSET	 0.009002	 0.042196	 0.000782
											}
										}
									}
								}
							}
						}
					}
				}
			}
		}
	}
}
MOTION
Frames:    4
Frame Time: 0.03333334
 0.436617	 1.273991	 0.406626	 0.572259	-2.390461	-177.248600	-178.981800	 6.842941	-13.210860	 3.468536	-12.829570	 5.978870	 5.390275	 69.765480	-1.591684	 1.292262	 28.425850	-2.713146	 176.519100	 7.576189	 14.840460	-2.026060	-10.422380	 0.849538	 0.521925	 66.077770	-5.801644	-1.288183	 28.361890	 2.710176	 0.705107	 6.426751	 4.877732	-1.469187	-6.511828	 2.236253	 1.869243	 7.617051	-7.651425	-117.467400	-0.782405	 89.957310	 32.417300	-4.855155	-4.876928	 4.588263	-0.368302	 34.732250	 3.068620	 9.643726	 2.112441	-6.580301	 5.266122	 0.000000	 0.000000	 0.000000	 0.000000	 0.000000	 0.000000	 0.000000	 4.800725	 27.134080	 1.708333	-4.146353	-16.532850	-1.893138	 116.300600	-0.443781	-90.567900	-9.062267	-6.862810	 22.926020	-12.047050	 0.291407	-57.191840	 3.030914	 14.926400	 18.084390	 15.208500	 5.323790	 0.000000	 0.000000	 0.000000	 0.000000	 0.000000	 0.000000	 0.000000
 0.436682	 1.274235	 0.407017	 0.586599	-2.537033	-177.240100	-178.863000	 6.945082	-14.177620	 3.425107	-12.674350	 5.990761	 5.562276	 69.639280	-1.651388	 1.292262	 28.425850	-2.713146	 176.445800	 7.640532	 15.819660	-1.984010	-10.210700	 0.825577	 0.247077	 65.921090	-5.687340	-1.288183	 28.361890	 2.710176	 0.669854	 6.423678	 5.248200	-1.490611	-6.786282	 2.233149	 1.891905	 7.867391	-7.668313	-117.560400	-0.810740	 89.944680	 32.327210	-4.903768	-4.652995	 4.640725	-0.320112	 34.864540	 3.495457	 9.781610	 2.402224	-6.580301	 5.266122	 0.000000	 0.000000	 0.000000	 0.000000	 0.000000	 0.000000	 0.000000	 4.865444	 27.337530	 1.654606	-4.155651	-16.636240	-1.885946	 116.447200	-0.484244	-90.553930	-12.263350	-8.156507	 22.460140	-5.162613	 0.197592	-57.415080	 0.805558	 12.123400	 17.769590	 15.208500	 5.323790	 0.000000	 0.000000	 0.000000	 0.000000	 0.000000	 0.000000	 0.000000
 0.436785	 1.274789	 0.407800	 0.598107	-2.784481	-177.222500	-178.758300	 7.045218	-15.137220	 3.309633	-12.260650	 6.011593	 5.832706	 69.345920	-1.744245	 1.292262	 28.425850	-2.713146	 176.384200	 7.672306	 16.806810	-1.878049	-9.676224	 0.777118	-0.190122	 65.578720	-5.480700	-1.288183	 28.361890	 2.710176	 0.577672	 6.480482	 6.039821	-1.527577	-7.355479	 2.225363	 1.935966	 8.394670	-7.704494	-117.758900	-0.871221	 89.917520	 32.288020	-5.307102	-4.081666	 4.771055	-0.220392	 35.156410	 4.430250	 10.418530	 2.863997	-6.580301	 5.266122	 0.000000	 0.000000	 0.000000	 0.000000	 0.000000	 0.000000	 0.000000	 5.004833	 27.771970	 1.538624	-4.175513	-16.857070	-1.870402	 116.760400	-0.570569	-90.523760	-12.235970	-8.618719	 22.439480	-5.214410	 0.344198	-57.853830	 0.094723	 12.600260	 16.846780	 15.208500	 5.323790	 0.000000	 0.000000	 0.000000	 0.000000	 0.000000	 0.000000	 0.000000
 0.437010	 1.276355	 0.409989	 0.597131	-3.327301	-177.179100	-178.669500	 7.066141	-16.514490	 2.934119	-10.906180	 6.047320	 6.411162	 68.448570	-1.890755	 1.292262	 28.425850	-2.713146	 176.343500	 7.497080	 18.245130	-1.534981	-7.933980	 0.668455	-1.168433	 64.531120	-5.024938	-1.288183	 28.361890	 2.710176	 0.318377	 6.664922	 7.973236	-1.593651	-8.669049	 2.204464	 2.030923	 9.646949	-7.793534	-118.244300	-1.018609	 89.850170	 32.262070	-6.846619	-2.559700	 5.106568	 0.010727	 35.915340	 6.985052	 12.499190	 3.585323	-6.580301	 5.266122	 0.000000	 0.000000	 0.000000	 0.000000	 0.000000	 0.000000	 0.000000	 5.352189	 28.832800	 1.248035	-4.224091	-17.396450	-1.831650	 117.525900	-0.780773	-90.448030	-12.044330	-10.421110	 22.564760	-5.354686	 0.697036	-59.002470	-2.099455	 14.316210	 14.679790	 15.208500	 5.323790	 0.000000	 0.000000	 0.000000	 0.000000	 0.000000	 0.000000	 0.000000
